<svg id="图层_1" data-name="图层 1" xmlns="http://www.w3.org/2000/svg" viewBox="0 0 25.8 23.45">
    <defs>
        <style>
        .cls-1 {
          fill: #9eacb9;
        }
        </style>
    </defs>
    <title>家</title>
    <path id="圆角矩形_22_拷贝_4" data-name="圆角矩形 22 拷贝 4" class="cls-1" d="M4,8.4V20.47c.13,1.8.77,2.94,3,3H19c2.22,0,3.05-.62,3-3V8.31L20,8s0,12.42,0,12.44a.85.85,0,0,1-1,1s-2,0-2,0v-5c-.14-1.24-.57-2-2-2H11a1.81,1.81,0,0,0-2,2v5s-1.95,0-2,0a1.37,1.37,0,0,1-1-1V8L4,8.4M15,21.47H11v-5h4ZM13,2.11A3.05,3.05,0,0,1,14,3L24.13,13.12a1,1,0,0,0,1.41-1.41L14.64.81a2.24,2.24,0,0,0-.23-.24,2.22,2.22,0,0,0-3.13.2l-11,11,0,0a1,1,0,0,0,0,1.41,1,1,0,0,0,1.43,0L12,2.94A2.69,2.69,0,0,1,13,2.11Z" transform="translate(0.02 -0.02)" />
</svg>