<svg xmlns="http://www.w3.org/2000/svg" class="svg-icon-lib"><symbol id="icon-camera" viewBox="0 0 35 32" class="icon-camera svg-symbol"> <!-- Generator: Sketch 48.1 (47250) - http://www.bohemiancoding.com/sketch --> <title>Combined Shape</title> <desc>Created with Sketch.</desc> <g id="&#x6D88;&#x8D39;&#x8BB0;&#x5F55;&#x786E;&#x5B9A;&#x65B9;&#x6848;" stroke="none" stroke-width="1" fill="none" fill-rule="evenodd" transform="translate(-47.000000, -89.000000)"> <g id="&#x5165;&#x53E3;" transform="translate(0.000000, 64.000000)" fill="#FFFFFF"> <g id="&#x53D1;&#x7968;&#x8BC6;&#x522B;" transform="translate(37.000000, 15.000000)"> <g id="&#x53D1;&#x7968;&#x8BC6;&#x522B;icon" filter="url(#filter-1)" transform="translate(14.000000, 14.000000)"> <path d="M21.9481132,22 L2.80188679,22 C1.25431132,22 0,20.7689167 0,19.25 L0,5.5 C0,3.98108333 1.25431132,2.75 2.80188679,2.75 L7.00471698,2.75 L7.47169811,1.83333333 C7.47169811,0.820875 8.30806132,0 9.33962264,0 L15.4103774,0 C16.4419387,0 17.2783019,0.820875 17.2783019,1.83333333 L17.745283,2.75 L21.9481132,2.75 C23.4956887,2.75 24.75,3.98108333 24.75,5.5 L24.75,19.25 C24.75,20.7689167 23.4956887,22 21.9481132,22 Z M12.1415094,16.5 C14.720575,16.5 16.8113208,14.4479718 16.8113208,11.9166667 C16.8113208,9.38536156 14.720575,7.33333333 12.1415094,7.33333333 C9.56244386,7.33333333 7.47169811,9.38536156 7.47169811,11.9166667 C7.47169811,14.4479718 9.56244386,16.5 12.1415094,16.5 Z M20.0801887,9.16666667 C21.1118149,9.16666667 21.9481132,8.34585537 21.9481132,7.33333333 C21.9481132,6.32081129 21.1118149,5.5 20.0801887,5.5 C19.0485624,5.5 18.2122642,6.32081129 18.2122642,7.33333333 C18.2122642,8.34585537 19.0485624,9.16666667 20.0801887,9.16666667 Z" id="Combined-Shape"/> </g> </g> </g> </g> <filter x="-28.3%" y="-31.8%" width="165.7%" height="172.7%" filterUnits="objectBoundingBox" id="filter-1"> <feOffset dx="1" dy="1" in="SourceAlpha" result="shadowOffsetOuter1"/> <feGaussianBlur stdDeviation="2.5" in="shadowOffsetOuter1" result="shadowBlurOuter1"/> <feColorMatrix values="0 0 0 0 0.912547832   0 0 0 0 0.728950782   0 0 0 0 0.148184604  0 0 0 1 0" type="matrix" in="shadowBlurOuter1" result="shadowMatrixOuter1"/> <feMerge> <feMergeNode in="shadowMatrixOuter1"/> <feMergeNode in="SourceGraphic"/> </feMerge> </filter> </symbol><symbol id="icon-home" viewBox="0 0 25.8 23.45" class="icon-home svg-symbol"> <title>&#x5BB6;</title> <path id="&#x5706;&#x89D2;&#x77E9;&#x5F62;_22_&#x62F7;&#x8D1D;_4" data-name="&#x5706;&#x89D2;&#x77E9;&#x5F62; 22 &#x62F7;&#x8D1D; 4" class="cls-1" d="M4,8.4V20.47c.13,1.8.77,2.94,3,3H19c2.22,0,3.05-.62,3-3V8.31L20,8s0,12.42,0,12.44a.85.85,0,0,1-1,1s-2,0-2,0v-5c-.14-1.24-.57-2-2-2H11a1.81,1.81,0,0,0-2,2v5s-1.95,0-2,0a1.37,1.37,0,0,1-1-1V8L4,8.4M15,21.47H11v-5h4ZM13,2.11A3.05,3.05,0,0,1,14,3L24.13,13.12a1,1,0,0,0,1.41-1.41L14.64.81a2.24,2.24,0,0,0-.23-.24,2.22,2.22,0,0,0-3.13.2l-11,11,0,0a1,1,0,0,0,0,1.41,1,1,0,0,0,1.43,0L12,2.94A2.69,2.69,0,0,1,13,2.11Z" transform="translate(0.02 -0.02)"/> </symbol></svg>